/* XPM */
static const char * barry_logo_icon_xpm[] = {
"32 32 331 2",
"  	c None",
". 	c #168711",
"+ 	c #4C9249",
"@ 	c #089404",
"# 	c #198E14",
"$ 	c #077B06",
"% 	c #479043",
"& 	c #11A70B",
"* 	c #089304",
"= 	c #283E84",
"- 	c #2E4581",
"; 	c #1133A0",
"> 	c #001761",
", 	c #011F26",
"' 	c #088D16",
") 	c #013346",
"! 	c #001A42",
"~ 	c #0A7D14",
"{ 	c #027B00",
"] 	c #048E01",
"^ 	c #12971D",
"/ 	c #1F44AD",
"( 	c #0044EB",
"_ 	c #003DDB",
": 	c #02186E",
"< 	c #0043E9",
"[ 	c #0041E4",
"} 	c #002EB6",
"| 	c #06195B",
"1 	c #0141E3",
"2 	c #003FDF",
"3 	c #04156B",
"4 	c #002367",
"5 	c #00429D",
"6 	c #0439B0",
"7 	c #2C3B70",
"8 	c #1540B4",
"9 	c #1B45B3",
"0 	c #0B38B8",
"a 	c #003AD6",
"b 	c #001570",
"c 	c #0043E7",
"d 	c #0035CD",
"e 	c #01177A",
"f 	c #0044EA",
"g 	c #002FBF",
"h 	c #001669",
"i 	c #0042E8",
"j 	c #00157A",
"k 	c #0032C5",
"l 	c #253F97",
"m 	c #143AA6",
"n 	c #003CDB",
"o 	c #0031C4",
"p 	c #000B57",
"q 	c #001666",
"r 	c #0029B3",
"s 	c #02176B",
"t 	c #030A3A",
"u 	c #001E8F",
"v 	c #0030C2",
"w 	c #00116B",
"x 	c #00083A",
"y 	c #002DB6",
"z 	c #001B8F",
"A 	c #010733",
"B 	c #0025AA",
"C 	c #003AD7",
"D 	c #2A3985",
"E 	c #354784",
"F 	c #071959",
"G 	c #001075",
"H 	c #020B57",
"I 	c #0226A3",
"J 	c #0038D3",
"K 	c #050E4B",
"L 	c #0238CE",
"M 	c #0025AB",
"N 	c #000C57",
"O 	c #0039D3",
"P 	c #003DDC",
"Q 	c #001B7D",
"R 	c #001681",
"S 	c #0041E6",
"T 	c #02116D",
"U 	c #040A40",
"V 	c #0141E2",
"W 	c #0040E2",
"X 	c #0028AA",
"Y 	c #020D4C",
"Z 	c #00177A",
"` 	c #002EBC",
" .	c #001A87",
"..	c #003DDD",
"+.	c #000F65",
"@.	c #0032C3",
"#.	c #000F7C",
"$.	c #063CCB",
"%.	c #000F68",
"&.	c #0033C9",
"*.	c #00177E",
"=.	c #002AB6",
"-.	c #001783",
";.	c #0030BC",
">.	c #0030BF",
",.	c #0030C3",
"'.	c #000663",
").	c #002BB6",
"!.	c #0026A5",
"~.	c #001177",
"{.	c #003BDB",
"].	c #29396B",
"^.	c #052AAB",
"/.	c #002CB8",
"(.	c #03104A",
"_.	c #0129AF",
":.	c #002CB9",
"<.	c #00136B",
"[.	c #001C96",
"}.	c #00053D",
"|.	c #001C91",
"1.	c #001886",
"2.	c #000B69",
"3.	c #050737",
"4.	c #020B6B",
"5.	c #030A3E",
"6.	c #001F8B",
"7.	c #052597",
"8.	c #0C1D5B",
"9.	c #000B67",
"0.	c #000749",
"a.	c #01105F",
"b.	c #00136E",
"c.	c #00105B",
"d.	c #01073A",
"e.	c #011573",
"f.	c #0038D5",
"g.	c #001479",
"h.	c #02218B",
"i.	c #012AB2",
"j.	c #00177F",
"k.	c #0041E5",
"l.	c #0138D2",
"m.	c #010B44",
"n.	c #081B5D",
"o.	c #003EE0",
"p.	c #001D8E",
"q.	c #002DAE",
"r.	c #0040E3",
"s.	c #003AD5",
"t.	c #001178",
"u.	c #00198C",
"v.	c #0033C7",
"w.	c #003EDF",
"x.	c #000F58",
"y.	c #003CDC",
"z.	c #0042E6",
"A.	c #001478",
"B.	c #002DB9",
"C.	c #092797",
"D.	c #0042E5",
"E.	c #0028A3",
"F.	c #00249D",
"G.	c #001372",
"H.	c #0025A8",
"I.	c #002195",
"J.	c #0044E9",
"K.	c #003FE0",
"L.	c #002BB8",
"M.	c #00105A",
"N.	c #003BD7",
"O.	c #0034CA",
"P.	c #000D60",
"Q.	c #0028AB",
"R.	c #081E7E",
"S.	c #102D86",
"T.	c #0032C8",
"U.	c #0026AC",
"V.	c #000E60",
"W.	c #001A8F",
"X.	c #001990",
"Y.	c #040939",
"Z.	c #0133BF",
"`.	c #0032C7",
" +	c #010C5F",
".+	c #012093",
"++	c #001F9C",
"@+	c #000B55",
"#+	c #000639",
"$+	c #001271",
"%+	c #000D4E",
"&+	c #00032B",
"*+	c #030E4F",
"=+	c #192552",
"-+	c #001261",
";+	c #00156C",
">+	c #040B60",
",+	c #091970",
"'+	c #000B6A",
")+	c #011A7B",
"!+	c #02166E",
"~+	c #011052",
"{+	c #051C64",
"]+	c #01104A",
"^+	c #001F96",
"/+	c #002BB4",
"(+	c #000C6F",
"_+	c #0040E4",
":+	c #182F7F",
"<+	c #1B45B1",
"[+	c #003FE1",
"}+	c #00137F",
"|+	c #0043E8",
"1+	c #0035CB",
"2+	c #02196C",
"3+	c #031F72",
"4+	c #003CDA",
"5+	c #0034C6",
"6+	c #00106B",
"7+	c #0040E7",
"8+	c #002EBE",
"9+	c #000760",
"0+	c #0042E7",
"a+	c #04188E",
"b+	c #39539F",
"c+	c #003FE2",
"d+	c #001077",
"e+	c #002294",
"f+	c #002DAC",
"g+	c #000E57",
"h+	c #0033C8",
"i+	c #00106C",
"j+	c #000E6C",
"k+	c #041F8E",
"l+	c #363E62",
"m+	c #1D2F70",
"n+	c #07185C",
"o+	c #00043B",
"p+	c #002193",
"q+	c #0037D1",
"r+	c #0030C0",
"s+	c #011369",
"t+	c #011878",
"u+	c #0041E8",
"v+	c #000838",
"w+	c #010F4D",
"x+	c #020E3C",
"y+	c #000C68",
"z+	c #000C6C",
"A+	c #262663",
"B+	c #1A3FA7",
"C+	c #003EDE",
"D+	c #002093",
"E+	c #020535",
"F+	c #011150",
"G+	c #00218D",
"H+	c #001266",
"I+	c #010C6B",
"J+	c #001678",
"K+	c #020738",
"L+	c #0027A0",
"M+	c #002196",
"N+	c #183696",
"O+	c #1643B7",
"P+	c #010B76",
"Q+	c #0132C6",
"R+	c #00137A",
"S+	c #002EB2",
"T+	c #002DAA",
"U+	c #022186",
"V+	c #0032C0",
"W+	c #002AB4",
"X+	c #001061",
"Y+	c #0029B2",
"Z+	c #072CA1",
"`+	c #011C84",
" @	c #040647",
".@	c #041F79",
"+@	c #0124A2",
"@@	c #010A53",
"#@	c #01228E",
"$@	c #011667",
"%@	c #011876",
"&@	c #000F5B",
"*@	c #00156B",
"=@	c #04135A",
"-@	c #051D77",
";@	c #010F5D",
">@	c #011176",
",@	c #010954",
"'@	c #01229D",
")@	c #002BB5",
"!@	c #020C58",
"~@	c #011F87",
"{@	c #011C71",
"]@	c #001A85",
"^@	c #002CBB",
"/@	c #0734BA",
"(@	c #0039D4",
"_@	c #000E72",
":@	c #001A8A",
"<@	c #001773",
"[@	c #021865",
"}@	c #051759",
"|@	c #010756",
"1@	c #102D8C",
"2@	c #1F2B73",
"3@	c #0021A4",
"4@	c #020A41",
"5@	c #0031C1",
"6@	c #001060",
"7@	c #02074C",
"8@	c #00115F",
"9@	c #012190",
"0@	c #2B2B30",
"a@	c #00176C",
"b@	c #000A62",
"c@	c #001581",
"d@	c #001A7A",
"e@	c #020C5D",
"f@	c #0229AA",
"g@	c #27272B",
"h@	c #000858",
"i@	c #001D83",
"j@	c #141B42",
"k@	c #1E2A56",
"l@	c #1C1C33",
"m@	c #16163F",
"n@	c #202020",
"o@	c #252525",
"p@	c #2D2D2D",
"                                                                ",
"                        .             +                         ",
"                        @             #                         ",
"                        $     %   &   *                         ",
"                = -   ; > , ' ) ! ~ { ] ^                       ",
"              / ( _ : < [ } | 1 2 3 4 5 6 7 8 9                 ",
"              0 ( a b c ( d e f f g h < i j k ( l               ",
"              m n o p q r s t u v w x y z A B C D               ",
"            E F G H I J K L f M N O P Q R S T U                 ",
"            V W X Y ( J Z ( ( `  .( ( ..+.n @.#.$.              ",
"            ( ( _ %.( &.*.( ( =.-.;.>.,.'.).!.~.{.].            ",
"            ^.d /.(._.:.<.` *.[.}.|.1.2.3.4.5.6.7.              ",
"            8.9.0.a.b.c.d.e.f.g.h.( ( i.j.k.l.m.n.              ",
"            o.O p.q.r.s.t.J ( u.v.( ( w.x.y.z.A.B.C.            ",
"            D.( E.F.S C G.[ ( H.I.J.K.L.M.N.O.P.Q.R.            ",
"            S.T.U.V.W.X.Y.Z.< `. +.+++@+#+$+%+&+*+              ",
"              =+-+;+>+,+y '+)+!+~+{+]+^+s.>./+(+_+:+            ",
"              <+[+i }+O |+1+2+3+4+( 5+6+7+( 8+9+0+a+            ",
"              b+c+K.d+a ( < e+f+( ( C g+1+h+i+j+k+l+            ",
"                m+n+o+p+q+r+s+t+u+n B v+w+x+y+z+A+              ",
"                  B+C+D+E+F+G+H+I+J+K+L+S ++M+S N+              ",
"                  O+( r.P+Q+[ R+S+T+U+V+D.W+X+Y+                ",
"                    Z+`+ @.@+@@@( i #@$@%@&@*@=@                ",
"                      -@W+;@>@,@'@)@!@~@{@]@S ^@                ",
"                      /@(@_@< :@<@[@}@n X |@1@                  ",
"                      2@3@4@5@6@f f 7@8@V.9@                    ",
"                          0@*.a@b@c@d@e@s.f@                    ",
"                          g@7+K.h@i@=.j@k@                      ",
"                            l@m@n@o@p@                          ",
"                                                                ",
"                                                                ",
"                                                                "};
