/* XPM */
static const char * barry_logo_icon_xpm[] = {
"32 32 392 2",
"  	c None",
". 	c #284A26",
"+ 	c #133310",
"@ 	c #1F631C",
"# 	c #4D6A4C",
"$ 	c #0E460C",
"% 	c #466A44",
"& 	c #11400F",
"* 	c #1C6718",
"= 	c #155B12",
"- 	c #215B1F",
"; 	c #176314",
"> 	c #22721D",
", 	c #727772",
"' 	c #0A290B",
") 	c #135113",
"! 	c #145613",
"~ 	c #326832",
"{ 	c #2E5E30",
"] 	c #135111",
"^ 	c #1A5E17",
"/ 	c #154D13",
"( 	c #144D12",
"_ 	c #7E3652",
": 	c #86435D",
"< 	c #7C636C",
"[ 	c #8E3959",
"} 	c #5B0D29",
"| 	c #211610",
"1 	c #122C0D",
"2 	c #351D19",
"3 	c #461220",
"4 	c #162D0F",
"5 	c #0D3E0E",
"6 	c #063809",
"7 	c #0E410D",
"8 	c #5E6B5B",
"9 	c #671233",
"0 	c #A22A58",
"a 	c #800534",
"b 	c #660D2F",
"c 	c #951E4D",
"d 	c #920B3F",
"e 	c #850939",
"f 	c #54132B",
"g 	c #9B2854",
"h 	c #91073D",
"i 	c #690B2E",
"j 	c #390618",
"k 	c #7E3951",
"l 	c #840B38",
"m 	c #6D1034",
"n 	c #77354F",
"o 	c #8F224C",
"p 	c #765562",
"q 	c #77002C",
"r 	c #970A41",
"s 	c #830938",
"t 	c #67072C",
"u 	c #8D0A3C",
"v 	c #940A40",
"w 	c #8E0A3D",
"x 	c #580626",
"y 	c #980B41",
"z 	c #950B40",
"A 	c #8B0A3C",
"B 	c #46051F",
"C 	c #950A40",
"D 	c #790934",
"E 	c #68082C",
"F 	c #970B41",
"G 	c #71002A",
"H 	c #5B0022",
"I 	c #940A3F",
"J 	c #89093B",
"K 	c #500522",
"L 	c #710831",
"M 	c #840A39",
"N 	c #700730",
"O 	c #45051D",
"P 	c #7A0934",
"Q 	c #850A3A",
"R 	c #710730",
"S 	c #44051D",
"T 	c #810937",
"U 	c #800A37",
"V 	c #5E0729",
"W 	c #5F0729",
"X 	c #8E0A3E",
"Y 	c #6A0029",
"Z 	c #946F7D",
"` 	c #4D0A23",
" .	c #64062B",
"..	c #580726",
"+.	c #621030",
"@.	c #6A0A2E",
"#.	c #3C041A",
"$.	c #6F1639",
"%.	c #8C093B",
"&.	c #66072C",
"*.	c #47041E",
"=.	c #6C1437",
"-.	c #7A0A35",
";.	c #590726",
">.	c #40081D",
",.	c #79163C",
"'.	c #610529",
").	c #540423",
"!.	c #41071E",
"~.	c #8C1745",
"{.	c #91093D",
"].	c #69072D",
"^.	c #530825",
"/.	c #8B1B46",
"(.	c #970E43",
"_.	c #540523",
":.	c #A62557",
"<.	c #95093F",
"[.	c #7E0936",
"}.	c #6C062D",
"|.	c #9D2151",
"1.	c #980D43",
"2.	c #5B0A29",
"3.	c #881A44",
"4.	c #980A41",
"5.	c #4E0420",
"6.	c #8A1C47",
"7.	c #6B3349",
"8.	c #856A75",
"9.	c #9F1B4E",
"0.	c #950A3F",
"a.	c #910B3F",
"b.	c #6E082F",
"c.	c #850838",
"d.	c #8C0A3C",
"e.	c #960940",
"f.	c #990B42",
"g.	c #760833",
"h.	c #720831",
"i.	c #88093A",
"j.	c #6C072E",
"k.	c #620629",
"l.	c #510522",
"m.	c #951A4A",
"n.	c #690129",
"o.	c #7B0633",
"p.	c #8D0A3D",
"q.	c #570625",
"r.	c #860939",
"s.	c #4B0621",
"t.	c #65072B",
"u.	c #6A072D",
"v.	c #4B051F",
"w.	c #550524",
"x.	c #4B0520",
"y.	c #47041F",
"z.	c #49031E",
"A.	c #40041C",
"B.	c #5C0728",
"C.	c #800736",
"D.	c #4E152B",
"E.	c #360F1E",
"F.	c #46041E",
"G.	c #3E041B",
"H.	c #44041D",
"I.	c #43041D",
"J.	c #3E051B",
"K.	c #3B0319",
"L.	c #800937",
"M.	c #5F0629",
"N.	c #5F112F",
"O.	c #951C4B",
"P.	c #930C40",
"Q.	c #470D24",
"R.	c #9F2C59",
"S.	c #48051F",
"T.	c #46061F",
"U.	c #5C3544",
"V.	c #A53460",
"W.	c #8A073A",
"X.	c #740730",
"Y.	c #782042",
"Z.	c #9D1B4D",
"`.	c #8E093C",
" +	c #9E335C",
".+	c #970940",
"++	c #730831",
"@+	c #750C34",
"#+	c #991145",
"$+	c #940B40",
"%+	c #920A3F",
"&+	c #5C0627",
"*+	c #790733",
"=+	c #9A0B42",
"-+	c #6D052D",
";+	c #792A49",
">+	c #8F093D",
",+	c #85797E",
"'+	c #92073C",
")+	c #960B40",
"!+	c #68062C",
"~+	c #960A40",
"{+	c #940B3F",
"]+	c #980A40",
"^+	c #6E072F",
"/+	c #750833",
"(+	c #960B41",
"_+	c #6A082D",
":+	c #5E0427",
"<+	c #800837",
"[+	c #775D67",
"}+	c #8B073A",
"|+	c #7D0936",
"1+	c #560625",
"2+	c #6B082E",
"3+	c #6F0830",
"4+	c #3D041A",
"5+	c #590626",
"6+	c #69082D",
"7+	c #750932",
"8+	c #5E0628",
"9+	c #40021A",
"0+	c #64072B",
"a+	c #3F051B",
"b+	c #580424",
"c+	c #500C26",
"d+	c #51132B",
"e+	c #530221",
"f+	c #47051F",
"g+	c #580325",
"h+	c #6C082E",
"i+	c #500622",
"j+	c #63072B",
"k+	c #600629",
"l+	c #47031E",
"m+	c #5D0728",
"n+	c #4B0521",
"o+	c #4E0622",
"p+	c #812448",
"q+	c #6D082F",
"r+	c #45031D",
"s+	c #782444",
"t+	c #6C0E33",
"u+	c #5A1933",
"v+	c #90214C",
"w+	c #8A083A",
"x+	c #5D0426",
"y+	c #922D54",
"z+	c #950C41",
"A+	c #7F0937",
"B+	c #510A26",
"C+	c #891B46",
"D+	c #910F41",
"E+	c #880A3B",
"F+	c #4D0621",
"G+	c #921545",
"H+	c #910A3E",
"I+	c #8E1443",
"J+	c #7A676E",
"K+	c #68263F",
"L+	c #9A0A42",
"M+	c #62072A",
"N+	c #8A0D3D",
"O+	c #64092C",
"P+	c #9B1247",
"Q+	c #940C41",
"R+	c #610729",
"S+	c #6B072E",
"T+	c #7C0935",
"U+	c #4E0521",
"V+	c #7A0835",
"W+	c #6A0229",
"X+	c #630127",
"Y+	c #7F0A37",
"Z+	c #860A39",
"`+	c #550625",
" @	c #63072A",
".@	c #40051B",
"+@	c #3A0015",
"@@	c #847A7F",
"#@	c #502737",
"$@	c #4C0621",
"%@	c #590D2B",
"&@	c #4C0520",
"*@	c #61072A",
"=@	c #480C24",
"-@	c #570425",
";@	c #6F1F3E",
">@	c #99194A",
",@	c #7E0030",
"'@	c #8C3C5B",
")@	c #9F144A",
"!@	c #8A2B4F",
"~@	c #94083E",
"{@	c #760E36",
"]@	c #540E29",
"^@	c #5D0828",
"/@	c #8C2A50",
"(@	c #9C0A42",
"_@	c #820938",
":@	c #5A0425",
"<@	c #7A0734",
"[@	c #65062B",
"}@	c #844A60",
"|@	c #7E002F",
"1@	c #41051C",
"2@	c #66052B",
"3@	c #701035",
"4@	c #861642",
"5@	c #9D0C44",
"6@	c #8F0B3E",
"7@	c #410019",
"8@	c #5C0828",
"9@	c #500B26",
"0@	c #550021",
"a@	c #6E555F",
"b@	c #73535F",
"c@	c #520824",
"d@	c #5B0627",
"e@	c #42021B",
"f@	c #4A051F",
"g@	c #69062C",
"h@	c #552135",
"i@	c #600628",
"j@	c #500924",
"k@	c #8A1944",
"l@	c #810535",
"m@	c #826972",
"n@	c #993B5F",
"o@	c #530925",
"p@	c #9A2B56",
"q@	c #710931",
"r@	c #4A041F",
"s@	c #4F0522",
"t@	c #360317",
"u@	c #911846",
"v@	c #89093A",
"w@	c #5B0727",
"x@	c #7C0834",
"y@	c #56001A",
"z@	c #761A3E",
"A@	c #8B0B3B",
"B@	c #70062F",
"C@	c #82264A",
"D@	c #9E164B",
"E@	c #560526",
"F@	c #780933",
"G@	c #730832",
"H@	c #43011B",
"I@	c #522938",
"J@	c #6A6466",
"K@	c #4A2432",
"L@	c #3E252E",
"M@	c #3E061C",
"N@	c #49051F",
"O@	c #63052A",
"P@	c #87093A",
"Q@	c #4E0522",
"R@	c #340416",
"S@	c #5F0728",
"T@	c #870538",
"U@	c #75374F",
"V@	c #6C706E",
"W@	c #4B4649",
"X@	c #8E234D",
"Y@	c #8F083B",
"Z@	c #510523",
"`@	c #4B0420",
" #	c #800836",
".#	c #550725",
"+#	c #621634",
"@#	c #631534",
"##	c #6D5961",
"$#	c #707070",
"%#	c #595959",
"&#	c #423F40",
"*#	c #4A0D25",
"=#	c #660A2D",
"-#	c #3A0E1F",
";#	c #4A1429",
">#	c #58142F",
",#	c #3E2A32",
"'#	c #515956",
")#	c #656A68",
"!#	c #747474",
"~#	c #646464",
"{#	c #505050",
"]#	c #4B4346",
"^#	c #4A4949",
"/#	c #4B4F4D",
"(#	c #525654",
"_#	c #6B6D6C",
"                                                                ",
"                      . + @         # $                         ",
"                      % & * =     - ; > ,                       ",
"                        ' ) ! ~ { ] ^ / (                       ",
"                _ : < [ } | 1 2 3 4 5 6 7 8                     ",
"              9 0 a b c d e f g h i j k l m n o p               ",
"              q r s t u v w x y z A B C z D E F G               ",
"              H I J K L M N O P Q R S T U V W X Y               ",
"            Z `  ...+.@.#.$.%.&.*.=.-.;.>.,.'.).!.              ",
"            ~.{.].^./.(._.:.<.[.}.|.1.F 2.3.4.5.6.7.            ",
"          8.9.0.a.b.c.d...e.f.g.h.%.i.w j.k.d l.m.n.            ",
"            o.p.e q.b.r.s.d t.u.v.w.V x.y.z.A.B.C.D.            ",
"            E.F.G.H.x.I.J.K.L.M.N.O.P.A Q.R.h S.T.U.            ",
"            V.W.X.Y.Z.`.K  +.+++@+#+$+%+&+*+=+-+;+>+,+          ",
"            '+)+P !+~+{+S.]+z ++^+C $+d.q./+(+_+:+<+[+          ",
"            m }+|+1+2+3+4+Q F r.5+6+7+8+9+t 0+a+b+c+            ",
"              d+e+1+f+g+h+i+j+k+l+m+n+o+p+}.q+r+s+t+            ",
"              u+v+w+x+y+z+A+j+B+C+D+E+F+G+~+H+l.I+`.J+          ",
"              K+L+)+M+N+$+$+A+O+P+Q+F R+S+z T+U+V+W+            ",
"                X+Y+S A+%+d.u.m+)+$+Z+1+`+ @a+.@+@@@            ",
"                  #@h.$@i+%@x.&@*@L m+=@j.-@;@>@,@              ",
"                  '@)@y *.!@~@{@]@^@H./@(@_@:@<@[@              ",
"                  }@|@s 1@2@w 3@4@5@6@7@7+8@9@0@a@              ",
"                    b@c@q+d@e@f@N d.g@h@i@j@k@l@m@              ",
"                      n@z+o@p@q@r@s@t@u@v@w@x@y@                ",
"                      z@e s@A@B@C@D@E@F@G@H@I@                  ",
"                      J@K@L@M@N@O@P@Q@R@S@T@U@                  ",
"                        V@W@X@Y@Z@`@ #.#+#@###                  ",
"                      $#%#&#*#=#-#;#>#,#'#)#                    ",
"                        !#~#{#]#^#/#(#_#                        ",
"                                                                ",
"                                                                "};
