/* XPM */
static const char * barry_logo_icon_xpm[] = {
"32 32 355 2",
"  	c None",
". 	c #1D5E1B",
"+ 	c #0D3C0B",
"@ 	c #12540F",
"# 	c #114B0E",
"$ 	c #195516",
"% 	c #123F0F",
"& 	c #1C6318",
"* 	c #216E1D",
"= 	c #1C6D19",
"- 	c #1F701B",
"; 	c #174115",
"> 	c #052D05",
", 	c #185715",
"' 	c #0D340B",
") 	c #243B25",
"! 	c #236B21",
"~ 	c #0C2B0A",
"{ 	c #1D6B19",
"] 	c #0E360D",
"^ 	c #1B6B17",
"/ 	c #6C2F46",
"( 	c #615155",
"_ 	c #700F34",
": 	c #4D0521",
"< 	c #16170B",
"[ 	c #164612",
"} 	c #361018",
"| 	c #2E1115",
"1 	c #154A12",
"2 	c #0F380D",
"3 	c #124610",
"4 	c #1A4314",
"5 	c #923659",
"6 	c #96073E",
"7 	c #90093D",
"8 	c #48071F",
"9 	c #9A1046",
"0 	c #950A40",
"a 	c #8B083B",
"b 	c #340B1C",
"c 	c #9C1147",
"d 	c #980A41",
"e 	c #530523",
"f 	c #4F202E",
"g 	c #872D4D",
"h 	c #860639",
"i 	c #42081F",
"j 	c #943A5D",
"k 	c #8F1845",
"l 	c #433138",
"m 	c #890437",
"n 	c #930A3F",
"o 	c #8B0A3C",
"p 	c #49051F",
"q 	c #950B40",
"r 	c #7C0935",
"s 	c #580425",
"t 	c #970A40",
"u 	c #940A40",
"v 	c #87093A",
"w 	c #45011B",
"x 	c #94053C",
"y 	c #960A41",
"z 	c #67072C",
"A 	c #7D0232",
"B 	c #96093F",
"C 	c #6C0026",
"D 	c #7B103A",
"E 	c #8D0A3D",
"F 	c #860839",
"G 	c #380317",
"H 	c #41051C",
"I 	c #750831",
"J 	c #4F0521",
"K 	c #350416",
"L 	c #590626",
"M 	c #8C093C",
"N 	c #4E0521",
"O 	c #300315",
"P 	c #840A39",
"Q 	c #5A0526",
"R 	c #2F0213",
"S 	c #6C072F",
"T 	c #56001C",
"U 	c #380217",
"V 	c #69062D",
"W 	c #500421",
"X 	c #76193C",
"Y 	c #A50B47",
"Z 	c #380418",
"` 	c #981446",
" .	c #9B0A42",
"..	c #7B0835",
"+.	c #2B0413",
"@.	c #920D40",
"#.	c #9C0B42",
"$.	c #3E041A",
"%.	c #540C28",
"&.	c #A5104A",
"*.	c #3E0219",
"=.	c #372029",
"-.	c #3B1021",
";.	c #BB5D80",
">.	c #91083D",
",.	c #810937",
"'.	c #380318",
").	c #A3174C",
"!.	c #8C093B",
"~.	c #4E0622",
"{.	c #981146",
"].	c #750832",
"^.	c #730932",
"/.	c #950D41",
"(.	c #47071F",
"_.	c #8F0C3E",
":.	c #5C0023",
"<.	c #AE466E",
"[.	c #53293A",
"}.	c #98003B",
"|.	c #940B40",
"1.	c #8E0A3D",
"2.	c #41041C",
"3.	c #9D0C44",
"4.	c #4E0421",
"5.	c #960B41",
"6.	c #970B41",
"7.	c #6F082F",
"8.	c #780833",
"9.	c #89093B",
"0.	c #88093A",
"a.	c #850939",
"b.	c #600629",
"c.	c #830938",
"d.	c #7E0936",
"e.	c #600729",
"f.	c #93053C",
"g.	c #670226",
"h.	c #840939",
"i.	c #7F0837",
"j.	c #350317",
"k.	c #800837",
"l.	c #520623",
"m.	c #7F0936",
"n.	c #40031A",
"o.	c #730731",
"p.	c #250210",
"q.	c #750732",
"r.	c #740832",
"s.	c #48051F",
"t.	c #280110",
"u.	c #6E072E",
"v.	c #310315",
"w.	c #730831",
"x.	c #35091A",
"y.	c #45041D",
"z.	c #550F2B",
"A.	c #46041D",
"B.	c #4C0520",
"C.	c #360317",
"D.	c #4D0420",
"E.	c #900B3E",
"F.	c #6B0C31",
"G.	c #9B1348",
"H.	c #960A40",
"I.	c #6F0730",
"J.	c #5E1632",
"K.	c #9B1549",
"L.	c #990B41",
"M.	c #27000F",
"N.	c #521A30",
"O.	c #351923",
"P.	c #B7416E",
"Q.	c #91093D",
"R.	c #73052F",
"S.	c #9A345B",
"T.	c #92073D",
"U.	c #910A3F",
"V.	c #540422",
"W.	c #A42F5C",
"X.	c #93073D",
"Y.	c #65072B",
"Z.	c #870A3A",
"`.	c #40041B",
" +	c #93093F",
".+	c #570424",
"++	c #78163B",
"@+	c #5F0224",
"#+	c #402D34",
"$+	c #9B033E",
"%+	c #7A0834",
"&+	c #7F0735",
"*+	c #540523",
"=+	c #6D072E",
"-+	c #970A41",
";+	c #920A3F",
">+	c #830838",
",+	c #8F0A3D",
"'+	c #4B0420",
")+	c #760832",
"!+	c #5A0324",
"~+	c #490A22",
"{+	c #87083A",
"]+	c #7E0836",
"^+	c #320316",
"/+	c #69072C",
"(+	c #6B072D",
"_+	c #3D041A",
":+	c #900A3D",
"<+	c #940B3F",
"[+	c #43041C",
"}+	c #64072B",
"|+	c #710730",
"1+	c #3D0319",
"2+	c #28000F",
"3+	c #62062A",
"4+	c #45051D",
"5+	c #22020E",
"6+	c #350013",
"7+	c #2A0211",
"8+	c #330315",
"9+	c #5C0727",
"0+	c #60092B",
"a+	c #7E0835",
"b+	c #45051E",
"c+	c #64062B",
"d+	c #370116",
"e+	c #2E0213",
"f+	c #7E103B",
"g+	c #A02C59",
"h+	c #7A0733",
"i+	c #820938",
"j+	c #610327",
"k+	c #B03B69",
"l+	c #55162D",
"m+	c #953459",
"n+	c #8F073C",
"o+	c #4A0721",
"p+	c #98194A",
"q+	c #93093E",
"r+	c #63072A",
"s+	c #6E0930",
"t+	c #AB476E",
"u+	c #94083D",
"v+	c #4E0723",
"w+	c #9B1247",
"x+	c #830937",
"y+	c #43031C",
"z+	c #9D0D44",
"A+	c #58011F",
"B+	c #6C0027",
"C+	c #990B42",
"D+	c #750833",
"E+	c #870939",
"F+	c #930B40",
"G+	c #5F0528",
"H+	c #65062B",
"I+	c #350519",
"J+	c #3B0218",
"K+	c #390318",
"L+	c #550524",
"M+	c #63072B",
"N+	c #980B42",
"O+	c #7B0834",
"P+	c #340316",
"Q+	c #3E031A",
"R+	c #2B0010",
"S+	c #661E3A",
"T+	c #560726",
"U+	c #3F0117",
"V+	c #A02857",
"W+	c #9A0940",
"X+	c #41041B",
"Y+	c #401123",
"Z+	c #510422",
"`+	c #370418",
" @	c #5B0425",
".@	c #79133A",
"+@	c #A00A44",
"@@	c #6E042D",
"#@	c #802A4B",
"$@	c #9B0E44",
"%@	c #8A0539",
"&@	c #9E184C",
"*@	c #590526",
"=@	c #971446",
"-@	c #960940",
";@	c #400C20",
">@	c #9B2453",
",@	c #880839",
"'@	c #870D3D",
")@	c #940A3F",
"!@	c #47031D",
"~@	c #760732",
"{@	c #481227",
"]@	c #670128",
"^@	c #800B39",
"/@	c #6D082F",
"(@	c #9C0B43",
"_@	c #560424",
":@	c #68062C",
"<@	c #40051C",
"[@	c #530E29",
"}@	c #41031B",
"|@	c #610326",
"1@	c #850A39",
"2@	c #42061C",
"3@	c #680029",
"4@	c #4D0421",
"5@	c #700731",
"6@	c #800836",
"7@	c #45031D",
"8@	c #883856",
"9@	c #660329",
"0@	c #68082D",
"a@	c #9C174A",
"b@	c #921E4A",
"c@	c #56001F",
"d@	c #BA4E77",
"e@	c #67032A",
"f@	c #5C1E35",
"g@	c #580525",
"h@	c #42041C",
"i@	c #810938",
"j@	c #44041D",
"k@	c #740831",
"l@	c #330214",
"m@	c #4F0823",
"n@	c #7A0130",
"o@	c #2B000E",
"p@	c #8F073B",
"q@	c #4A021F",
"r@	c #A22354",
"s@	c #9D0B43",
"t@	c #40031B",
"u@	c #810736",
"v@	c #191013",
"w@	c #422F36",
"x@	c #461529",
"y@	c #3F031A",
"z@	c #5C0628",
"A@	c #67062B",
"B@	c #5B0526",
"C@	c #A40A46",
"D@	c #7F0535",
"E@	c #A9124C",
"F@	c #590425",
"G@	c #7C0735",
"H@	c #890739",
"I@	c #371A25",
"J@	c #230913",
"K@	c #460B22",
"L@	c #131615",
"M@	c #161716",
"N@	c #1B181A",
"                                                                ",
"                      . + @         #                           ",
"                      $ % & *     = - ;                         ",
"                        > , ' ) ! ~ { ] ^                       ",
"                /   ( _ : < [ } | 1 2 3 4                       ",
"              5 6 7 8 9 0 a b c d e f g h i j k l               ",
"              m n o p d q r s t u v w x y z A B C               ",
"              D E F G H I J K L M N O P Q R S 0 T               ",
"              U V W X Y Z `  ...+.@.#.$.%.&.e *.=.              ",
"          -.;.>.,.'.).!.~.{.u ].^./.n 0 (._.M :.<.              ",
"          [.}.|.1.2.3.v 4.5.6.7.8.9.0.a.b.c.d.e.f.              ",
"            g.h.i.j.8.k.l.m.n.o.p.q.r.s.t.u.v.w.q.              ",
"            x.N y.z.A.B.C.D.E.: F.G.H.I.J.K.L.M.N.              ",
"          O.P.Q.R.S.T.U.V.W.X.Y.Z.|.|.H.`.1. +.+++@+            ",
"          #+$+|.%+&+|.1.*+X.q =+].-+;+>+`.,+E '+)+!+            ",
"            ~+{+]+^+/+(+_+:+<+0.[+}+|+1+2+3+4+5+6+              ",
"              7+8+: 9+0+a+b+V c+d+e.e+f+g+h+i+j+k+l+            ",
"              m+n+ .o+p+q+v r+s+t+u+,+v+w+0 x+y+z+A+            ",
"              B+q C+y.Q.|.0 D+E+F+u :+2.,+0.G+H+)+I+            ",
"                  J+K+w.,+E+L+M+N+M O+P+Q+R+S+T+U+              ",
"                  V+W+X+Z Y+Z+`+ @b.X+.@+@@@#@$@%@              ",
"                  &@n  .*@=@-@;@>@,@z '@)@q.!@~@{@              ",
"                  ]@^@(+_+/@r _+(@;+)+_@:@<@[@}@                ",
"                      |@1@2@3@4@5@6@7@8@9@0@a@>+                ",
"                      b@n+c@d@e@f@g@h@H.i@j@k@l@                ",
"                      m@n@o@p@q@r@s@j@t@K+u@v@                  ",
"                          w@x@y@z@A@L B@C@D@                    ",
"                            E@H.F@G@H@I@                        ",
"                            J@K@L@M@N@                          ",
"                                                                ",
"                                                                ",
"                                                                "};
